<?xml version="1.0" encoding="UTF-8"?>
<!-- Uploaded to: SVG Repo, www.svgrepo.com, Generator: SVG Repo Mixer Tools -->
<svg width="800px" height="800px" viewBox="0 0 800 800" fill="none" xmlns="http://www.w3.org/2000/svg">
<path d="M277.875 172.23h-7.23c-2.88 29.49-6.93 65.355-57.825 65.355h-23.43c-13.575 0-14.16-2.04-14.16-11.58V72.465c0-9.825 0-13.875 27.18-13.875h9.54v-8.67c-10.41.87-36.435.87-48.3.87-11.265 0-33.825 0-43.65-.87v8.67h6.645c22.275 0 22.845 3.18 22.845 13.59v151.8c0 10.41-.57 13.605-22.845 13.605H120v8.955h150.075l7.8-74.31z" fill="#000000"/>
<path d="M436.39 234.43h-117.4l-3.47 43.18h4.63c2.7-31.03 5.58-37.4 34.7-37.4 3.46 0 8.48 0 10.4.4 4.05.76 4.05 2.88 4.05 7.32v101.2c0 6.56 0 9.26-20.24 9.26h-7.71v5.97c7.9-.58 27.37-.58 36.24-.58s28.72 0 36.63.58v-5.97h-7.71c-20.24 0-20.24-2.7-20.24-9.26v-101.2c0-3.86 0-6.56 3.47-7.33 2.12-.38 7.32-.38 10.98-.38 28.92 0 31.81 6.36 34.5 37.4h4.83l-3.66-43.19z" fill="#000000"/>
<!--<path d="M18.198 23.308c-.078-.23-.116-.308-.367-.308-.25 0-.308.077-.385.308l-3.104 7.866c-.135.327-.366.925-1.561.925v.482h2.988v-.482c-.598 0-.964-.27-.964-.656 0-.096.02-.135.058-.27l.655-1.657h3.817l.771 1.966a.65.65 0 0 1 .077.231c0 .386-.732.386-1.099.386v.482h3.798v-.482h-.27c-.906 0-1.002-.135-1.137-.52l-3.277-8.27zm0.944 5.726h-3.431l1.716-4.357z" fill="#000000"/>
<path d="M43.971 35.82h-.482c-.482 2.949-.925 4.356-4.221 4.356h-2.545c-.906 0-.945-.135-.945-.771v-5.128h1.716c1.87 0 2.082.617 2.082 2.255h.482v-5.089h-.482c0 1.639-.212 2.236-2.082 2.236h-1.716v-4.607c0-.636.039-.77.945-.77h2.467c2.95 0 3.451 1.06 3.76 3.739h.481l-.54-4.318H32.097v.578h.444c1.484 0 1.523.212 1.523.906V39.27c0 .694-.039.906-1.523.906h-.444v.597h11.065l.81-4.954z" fill="#000000"/>
<path d="m49.773 29.014 2.641-3.855c.405-.617 1.06-1.234 2.776-1.253v-.578h-4.588v.578c.772.02 1.196.443 1.196.887 0 .192-.039.231-.174.443l-2.198 3.239-2.467-3.702c-.039-.057-.135-.212-.135-.289 0-.231.424-.559 1.234-.578v-.578c-.656.058-2.063.058-2.795.058-.598 0-1.793-.02-2.506-.058v.578h.366c1.06 0 1.426.135 1.793.675l3.527 5.34-3.142 4.645c-.27.386-.848 1.273-2.776 1.273v.597h4.588v-.597c-.886-.02-1.214-.54-1.214-.887 0-.174.058-.25.193-.463l2.718-4.029 3.045 4.588c.039.077.097.154.097.212 0 .232-.424.56-1.253.579v.597c.675-.058 2.082-.058 2.795-.058.81 0 1.696.02 2.506.058v-.597h-.366c-1.003 0-1.407-.097-1.812-.694l-4.049-6.13z" fill="#000000"/>-->
</svg>