<?xml version="1.0" encoding="UTF-8"?>
<svg version="1.1" xmlns="http://www.w3.org/2000/svg" xmlns:xlink="http://www.w3.org/1999/xlink" height="100px" width="100px" viewBox="0 0 256 256" enable-background="new 0 0 256 256" xml:space="preserve">

<path fill="#000000" d="M246,66.4c-0.1,2.2-0.4,3.7-0.8,4.4c-0.4,0.8-1.7,1.4-3.7,1.7c-4.5,1-7.4-0.7-8.9-5.1c-5.2-16-11.3-26.7-18.4-32c-9.9-7.3-27.2-11-51.9-11c-10,0-15.5,1.1-16.5,3.3c-0.3,0.7-0.5,1.8-0.5,3.1v180.3c0,7.7,1.8,13.1,5.4,16.2c3.6,3,10.1,6.9,20.9,9.5c4.6,1,9.2,1.9,9.8,2.3c4.4,0,4.8,10-3.6,10c-0.2,0.1-98.4-0.1-98.4-0.1s-6.9-4.2-0.7-9.7c2.6-1.1,7.3-3.3,7.3-3.3s17.4-5.8,21-9.6c4.1-4.2,6.2-11.1,6.2-20.4V30.8c0-3.5-2.2-5.6-6.5-6.1c-0.5-0.1-4-0.2-10.7-0.2c-22.9,0-39.8,4-50.7,11.9C37,42.3,29.8,53.2,23.4,69c-2.1,4.9-4.9,6.5-8.5,4.9c-4.1-1-5.6-3.2-4.5-6.7c4.2-13,6.3-31.4,6.3-55.2c0-2.8,3.7-5.6,11-5.1l202.7,0.5c6.7-1,10.4,0.1,11,3.3C244.8,26.8,246.3,45.3,246,66.4z"/>

</svg>